<svg xmlns="http://www.w3.org/2000/svg" viewBox="0 0 512 512"><!--!Font Awesome Free 6.5.1 by @fontawesome - https://fontawesome.com License - https://fontawesome.com/license/free Copyright 2024 Fonticons, Inc.--><path fill="#FFD43B" d="M164.9 24.6c-7.7-18.6-28-28.8-47.6-23.2l-88 24C12.1 30.2 0 46 0 64V448c0 18 12.1 33.8 31.3 38.6l88 24c19.6 5.6 40-4.6 47.6-23.2c-2.3 2.8-5 5.5-8 7.9c-26.6 21.5-63.5 15.3-82.6-16.7L44.2 444.6C34.7 429.2 32 411.3 32 393.3V118.7C32 100.7 34.7 82.8 44.2 67.4L74.4 20.3c19.1-32 56-38.2 82.6-16.7c3.1-2.4 5.9-5.1 8.2-7.9zm193.7 0c7.7-18.6 28-28.8 47.6-23.2l88 24c19.2 4.8 31.3 20.6 31.3 38.6V448c0 18-12.1 33.8-31.3 38.6l-88 24c-19.6 5.6-40-4.6-47.6-23.2c2.3 2.8 5 5.5 8 7.9c26.6 21.5 63.5 15.3 82.6-16.7l30.2-47.1c9.5-15.4 12.2-33.3 12.2-51.3V118.7c0-18-2.7-35.9-12.2-51.3L393.8 20.3c-19.1-32-56-38.2-82.6-16.7c-3.1-2.4-5.9-5.1-8.2-7.9zM256 160a96 96 0 1 1 0 192 96 96 0 1 1 0-192zM153.2 78.4L128 126.7v258.6l25.2 48.3c15.2 29.1 50 36.3 75.3 17.6c3.2-2.4 6-5.2 8.5-8.2c-15.1-12.7-27.1-28.3-35.2-45.5L200 352h-8c-13.3 0-24-10.7-24-24s10.7-24 24-24h8l-3.9-80H192c-13.3 0-24-10.7-24-24s10.7-24 24-24h56c13.3 0-24 48-24 24v-48h-8c-13.3 0-24-10.7-24-24s10.7-24 24-24h8l3.9-80H192c-13.3 0-24-10.7-24-24s10.7-24 24-24h56c13.3 0 24-10.7 24-24s-10.7-24-24-24h-48c-25.3-18.6-60.1-11.4-75.3 17.7zM336 256c0 53-43 96-96 96s-96-43-96-96 43-96 96-96 96 43 96 96zm22.7-44.2c-8.1 17.3-20.1 32.9-35.2 45.5c2.5 3 5.3 5.8 8.5 8.2c25.3 18.6 60.1 11.4 75.3-17.7l25.2-48.3V126.7L382.8 78.4c-15.2-29.1-50-36.3-75.3-17.6zM240 160c-13.3 0-24 10.7-24 24s10.7 24 24 24h56c13.3 0 24-10.7 24-24s-10.7-24-24-24H240zm0 96c-13.3 0-24 10.7-24 24s10.7 24 24 24h56c13.3 0 24-10.7 24-24s-10.7-24-24-24H240z"/></svg>